<svg width="21" height="19" viewBox="0 0 21 19" fill="none" xmlns="http://www.w3.org/2000/svg">
  <path d="M10.5 12.35L14.7 8.55L6.3 8.55L10.5 12.35Z" fill="black"/>
  <path d="M10.5 0C11.9525 0 13.3175 0.249374 14.595 0.748125C15.8725 1.24688 16.9837 1.92375 17.9288 2.77875C18.8737 3.63375 19.6219 4.63917 20.1731 5.795C20.7244 6.95083 21 8.18583 21 9.5C21 10.8142 20.7244 12.0492 20.1731 13.205C19.6219 14.3608 18.8737 15.3663 17.9288 16.2213C16.9837 17.0763 15.8725 17.7531 14.595 18.2519C13.3175 18.7506 11.9525 19 10.5 19C9.0475 19 7.6825 18.7506 6.405 18.2519C5.1275 17.7531 4.01625 17.0763 3.07125 16.2213C2.12625 15.3663 1.37813 14.3608 0.826876 13.205C0.275625 12.0492 0 10.8142 0 9.5C0 8.18583 0.275625 6.95083 0.826876 5.795C1.37813 4.63917 2.12625 3.63375 3.07125 2.77875C4.01625 1.92375 5.1275 1.24688 6.405 0.748125C7.6825 0.249374 9.0475 0 10.5 0ZM10.5 1.9C8.155 1.9 6.16875 2.63625 4.54125 4.10875C2.91375 5.58125 2.1 7.37833 2.1 9.5C2.1 11.6217 2.91375 13.4188 4.54125 14.8913C6.16875 16.3637 8.155 17.1 10.5 17.1C12.845 17.1 14.8313 16.3637 16.4588 14.8913C18.0863 13.4188 18.9 11.6217 18.9 9.5C18.9 7.37833 18.0863 5.58125 16.4588 4.10875C14.8313 2.63625 12.845 1.9 10.5 1.9Z" fill="black"/>
</svg>